<?xml version="1.0" encoding="UTF-8"?>
<!DOCTYPE svg PUBLIC "-//W3C//DTD SVG 1.1//EN" "http://www.w3.org/Graphics/SVG/1.1/DTD/svg11.dtd">
<svg xmlns="http://www.w3.org/2000/svg" version="1.1" width="2048px" height="675px" style="shape-rendering:geometricPrecision; text-rendering:geometricPrecision; image-rendering:optimizeQuality; fill-rule:evenodd; clip-rule:evenodd" xmlns:xlink="http://www.w3.org/1999/xlink">
<g><path style="opacity:1" fill="#f9faf9" d="M 1208.5,212.5 C 1224.17,212.333 1239.84,212.5 1255.5,213C 1256.7,213.903 1257.53,215.069 1258,216.5C 1258.67,295.167 1258.67,373.833 1258,452.5C 1257.5,454.333 1256.33,455.5 1254.5,456C 1239.17,456.667 1223.83,456.667 1208.5,456C 1207,455.167 1205.83,454 1205,452.5C 1204.83,448.459 1204.33,444.459 1203.5,440.5C 1191.9,454.878 1176.73,461.878 1158,461.5C 1113.08,458.92 1087.75,435.254 1082,390.5C 1079.39,367.186 1082.72,344.853 1092,323.5C 1106.51,299.195 1128.01,287.528 1156.5,288.5C 1175.68,287.264 1191.35,293.931 1203.5,308.5C 1204.33,277.839 1204.83,247.172 1205,216.5C 1205.69,214.65 1206.86,213.316 1208.5,212.5 Z M 1160.5,337.5 C 1194.65,335.486 1209.15,351.486 1204,385.5C 1199.9,403.147 1188.73,412.147 1170.5,412.5C 1146.91,410.739 1135.25,397.906 1135.5,374C 1135.08,362.403 1138.75,352.403 1146.5,344C 1150.88,340.975 1155.54,338.808 1160.5,337.5 Z"/></g>
<g><path style="opacity:1" fill="#f9faf9" d="M 1307.5,214.5 C 1336.51,211.678 1349.01,224.678 1345,253.5C 1344.03,263.128 1339.19,269.961 1330.5,274C 1290.82,281.309 1276.65,265.476 1288,226.5C 1292.89,219.809 1299.39,215.809 1307.5,214.5 Z"/></g>
<g><path style="opacity:1" fill="#f9faf9" d="M 600.5,229.5 C 618.503,229.333 636.503,229.5 654.5,230C 679.503,276.619 704.336,323.452 729,370.5C 730.333,371.833 731.667,373.167 733,374.5C 735.69,372.807 737.69,370.473 739,367.5C 763.106,321.455 787.606,275.622 812.5,230C 830.74,229.175 848.907,229.341 867,230.5C 868.657,304.443 868.991,378.443 868,452.5C 867.5,454.333 866.333,455.5 864.5,456C 847.468,456.791 830.468,456.624 813.5,455.5C 812.686,419.196 812.186,382.862 812,346.5C 811.586,346.043 811.086,345.709 810.5,345.5C 791.135,382.066 771.468,418.566 751.5,455C 745.605,456.124 739.605,456.624 733.5,456.5C 728.167,456.333 722.833,456.167 717.5,456C 716.376,455.751 715.376,455.251 714.5,454.5C 695.284,419.339 676.45,383.672 658,347.5C 657.311,346.643 656.478,345.977 655.5,345.5C 654.667,381.495 654.167,417.495 654,453.5C 653.097,454.701 651.931,455.535 650.5,456C 634.5,456.667 618.5,456.667 602.5,456C 601.069,455.535 599.903,454.701 599,453.5C 598.333,379.5 598.333,305.5 599,231.5C 599.717,230.956 600.217,230.289 600.5,229.5 Z"/></g>
<g><path style="opacity:1" fill="#f9faf9" d="M 268.5,232.5 C 313.835,232.333 359.168,232.5 404.5,233C 406.418,234.77 406.918,236.937 406,239.5C 360.679,286.655 315.512,333.989 270.5,381.5C 223.504,382.667 176.504,382.833 129.5,382C 127.931,378.684 128.598,375.851 131.5,373.5C 175.155,328.345 218.655,283.011 262,237.5C 263.805,235.174 265.972,233.508 268.5,232.5 Z"/></g>
<g><path style="opacity:1" fill="#f9faf9" d="M 965.5,288.5 C 1034.99,284.161 1067.83,316.828 1064,386.5C 1063.53,387.931 1062.7,389.097 1061.5,390C 1024.83,390.333 988.167,390.667 951.5,391C 950.707,392.085 950.04,393.252 949.5,394.5C 954.77,410.584 965.937,418.251 983,417.5C 991.733,417.775 999.9,415.775 1007.5,411.5C 1011.07,408.099 1014.07,404.265 1016.5,400C 1030.83,399.333 1045.17,399.333 1059.5,400C 1061.44,401.722 1062.44,403.889 1062.5,406.5C 1058.63,433.206 1043.63,450.04 1017.5,457C 987.754,464.448 958.754,462.448 930.5,451C 907.957,438.09 895.457,418.59 893,392.5C 889.58,367.954 893.246,344.621 904,322.5C 918.968,301.125 939.468,289.791 965.5,288.5 Z M 972.5,332.5 C 982.859,331.167 992.525,333 1001.5,338C 1006.81,341.602 1009.97,346.435 1011,352.5C 991.573,353.659 972.073,353.826 952.5,353C 952.043,352.586 951.709,352.086 951.5,351.5C 955.695,341.968 962.695,335.634 972.5,332.5 Z"/></g>
<g><path style="opacity:1" fill="#f9faf9" d="M 1623.5,288.5 C 1704.4,283.65 1739.23,321.317 1728,401.5C 1719.83,433.666 1699.33,452.833 1666.5,459C 1641.83,463.247 1617.5,461.913 1593.5,455C 1563.55,443.031 1547.39,420.864 1545,388.5C 1543.55,371.903 1544.88,355.57 1549,339.5C 1556.53,316.641 1571.69,301.474 1594.5,294C 1604.21,291.646 1613.88,289.813 1623.5,288.5 Z M 1627.5,337.5 C 1666.33,335.498 1681.49,353.498 1673,391.5C 1669.89,399.605 1664.39,405.439 1656.5,409C 1640.82,414.09 1625.82,412.757 1611.5,405C 1602.95,396.725 1598.62,386.559 1598.5,374.5C 1598.66,362.376 1602.99,352.21 1611.5,344C 1616.57,340.956 1621.91,338.79 1627.5,337.5 Z"/></g>
<g><path style="opacity:1" fill="#f9faf9" d="M 1290.5,293.5 C 1306.5,293.333 1322.5,293.5 1338.5,294C 1339.85,294.772 1340.68,295.939 1341,297.5C 1341.67,349.167 1341.67,400.833 1341,452.5C 1340.5,454.333 1339.33,455.5 1337.5,456C 1322.5,456.667 1307.5,456.667 1292.5,456C 1290.94,455.682 1289.77,454.849 1289,453.5C 1288.33,400.833 1288.33,348.167 1289,295.5C 1289.72,294.956 1290.22,294.289 1290.5,293.5 Z"/></g>
<g><path style="opacity:1" fill="#f9faf9" d="M 1353.5,293.5 C 1371.17,293.333 1388.84,293.5 1406.5,294C 1419.62,321.669 1431.79,349.836 1443,378.5C 1443.69,380.555 1444.85,382.221 1446.5,383.5C 1459.39,353.669 1472.39,323.835 1485.5,294C 1503.17,293.333 1520.83,293.333 1538.5,294C 1540.5,296.841 1541,300.007 1540,303.5C 1519.94,349.93 1500.27,396.597 1481,443.5C 1479.13,447.722 1476.96,451.722 1474.5,455.5C 1456.21,456.653 1437.88,456.82 1419.5,456C 1418.07,455.535 1416.9,454.701 1416,453.5C 1393.8,402.466 1372.3,351.133 1351.5,299.5C 1351.87,297.333 1352.54,295.333 1353.5,293.5 Z"/></g>
<g><path style="opacity:1" fill="#f9faf9" d="M 1745.5,293.5 C 1763.84,293.333 1782.17,293.5 1800.5,294C 1809.96,307.287 1819.96,320.12 1830.5,332.5C 1840.47,319.392 1850.81,306.559 1861.5,294C 1879.5,293.333 1897.5,293.333 1915.5,294C 1917.5,296.841 1918,300.007 1917,303.5C 1898.83,327.333 1880.67,351.167 1862.5,375C 1880.38,398.59 1898.38,422.09 1916.5,445.5C 1917.65,448.446 1917.82,451.446 1917,454.5C 1916.25,455.126 1915.42,455.626 1914.5,456C 1896.64,456.813 1878.8,456.647 1861,455.5C 1850.59,443.008 1840.42,430.342 1830.5,417.5C 1820.05,430.242 1809.71,443.075 1799.5,456C 1781.1,456.96 1762.77,456.627 1744.5,455C 1743.21,451.875 1743.21,448.709 1744.5,445.5C 1762.62,422.09 1780.62,398.59 1798.5,375C 1780.72,350.882 1762.55,327.049 1744,303.5C 1743.04,299.851 1743.54,296.518 1745.5,293.5 Z"/></g>
<g><path style="opacity:1" fill="#f9faf9" d="M 393.5,307.5 C 440.5,307.5 487.5,307.5 534.5,307.5C 534.682,309.591 534.348,311.591 533.5,313.5C 488.627,360.871 443.627,408.038 398.5,455C 374.919,456.157 351.252,456.657 327.5,456.5C 304.5,456.333 281.5,456.167 258.5,456C 256.789,454.867 256.289,453.367 257,451.5C 260,447.833 263,444.167 266,440.5C 308.704,396.298 351.204,351.964 393.5,307.5 Z"/></g>
</svg>
